<svg xmlns="http://www.w3.org/2000/svg" xmlns:xlink="http://www.w3.org/1999/xlink" width="33.119" height="33.118" viewBox="0 0 33.119 33.118">
  <defs>
    <clipPath id="clip-path">
      <rect id="Rectangle_1239" data-name="Rectangle 1239" width="33.119" height="33.118" fill="none"/>
    </clipPath>
    <clipPath id="clip-path-3">
      <rect id="Rectangle_1237" data-name="Rectangle 1237" width="24.236" height="32.358" fill="none"/>
    </clipPath>
  </defs>
  <g id="Group_4610" data-name="Group 4610" clip-path="url(#clip-path)">
    <g id="Group_4609" data-name="Group 4609">
      <g id="Group_4608" data-name="Group 4608" clip-path="url(#clip-path)">
        <path id="Path_1984" data-name="Path 1984" d="M20.174.4a16.555,16.555,0,0,1,12.658,19.2c-.035.19-.075.379-.117.567A16.556,16.556,0,1,1,20.174.4" transform="translate(0 0.001)" fill="#fff"/>
        <path id="Path_1985" data-name="Path 1985" d="M58.409,48.131a10.026,10.026,0,0,1,6.321,4.443,8.307,8.307,0,0,1-2.563,11.454A6.864,6.864,0,0,1,52.7,61.909a5.72,5.72,0,0,1,1.764-7.883,4.794,4.794,0,0,1,6.614,1.48,4.051,4.051,0,0,1-1.252,5.6,3.47,3.47,0,0,1-4.787-1.071,1.112,1.112,0,0,1,1.879-1.19,1.245,1.245,0,0,0,1.715.384A1.831,1.831,0,0,0,59.2,56.7a2.562,2.562,0,0,0-3.542-.793,3.493,3.493,0,0,0-1.077,4.813,4.642,4.642,0,0,0,6.4,1.432,6.085,6.085,0,0,0,1.876-8.384A7.872,7.872,0,0,0,51.99,51.335,10.116,10.116,0,0,0,48.865,65.3,12.924,12.924,0,0,0,66.7,69.288a16.348,16.348,0,0,0,6.176-7.129c-.035.19-.075.379-.117.567a16.461,16.461,0,0,1-4.686,8.323c-.06.04-.122.079-.183.119a15.153,15.153,0,0,1-20.907-4.678A12.324,12.324,0,0,1,50.8,49.456a10.037,10.037,0,0,1,7.612-1.325" transform="translate(-40.046 -42.552)" fill="#29d6ae"/>
        <g id="Group_4607" data-name="Group 4607" transform="translate(8.881 0.759)" opacity="0.1">
          <g id="Group_4606" data-name="Group 4606">
            <g id="Group_4605" data-name="Group 4605" clip-path="url(#clip-path-3)">
              <path id="Path_1986" data-name="Path 1986" d="M103.715,19.541A16.555,16.555,0,0,1,91.1,38.77c-.189.043-.377.081-.567.117a16.46,16.46,0,0,1-9.5-1.006c-.43-.18-.849-.38-1.259-.594a16.43,16.43,0,0,0,8.028.467c.189-.036.378-.073.566-.117A16.555,16.555,0,0,0,92.4,6.821a16.547,16.547,0,0,1,11.318,12.72" transform="translate(-79.771 -6.821)"/>
            </g>
          </g>
        </g>
      </g>
    </g>
  </g>
</svg>
