<svg id="Group_4622" data-name="Group 4622" xmlns="http://www.w3.org/2000/svg" width="45.498" height="45.497" viewBox="0 0 45.498 45.497">
  <path id="Path_1937" data-name="Path 1937" d="M-855.82-260.311q0,1-.081,1.969a22.52,22.52,0,0,1-1.583,6.625q-.229.564-.488,1.113a22.613,22.613,0,0,1-1.931,3.337,22.841,22.841,0,0,1-5.662,5.664,22.722,22.722,0,0,1-2.374,1.449q-.476.251-.964.482-.835.394-1.708.719a22.488,22.488,0,0,1-6.03,1.351q-.934.08-1.888.081-.995,0-1.967-.08a22.514,22.514,0,0,1-6.129-1.387q-.821-.311-1.61-.683a22.527,22.527,0,0,1-3.337-1.931,22.839,22.839,0,0,1-5.663-5.663,22.71,22.71,0,0,1-1.931-3.337h0q-.405-.861-.739-1.761a22.588,22.588,0,0,1-1.331-5.977q-.079-.933-.081-1.885,0-.995.081-1.97a22.614,22.614,0,0,1,1.44-6.264q.29-.75.63-1.475a22.736,22.736,0,0,1,1.931-3.337,22.865,22.865,0,0,1,5.663-5.664,22.555,22.555,0,0,1,3.338-1.93,22.458,22.458,0,0,1,2.218-.9c.089-.031.179-.062.268-.09a22.531,22.531,0,0,1,5.253-1.078c.621-.053,1.25-.079,1.884-.081q1,0,1.971.081a22.581,22.581,0,0,1,6.746,1.634c.13.051.256.106.384.162.2.089.408.181.609.275a22.649,22.649,0,0,1,2.453,1.346c.3.189.594.384.884.587a22.832,22.832,0,0,1,5.664,5.661,22.7,22.7,0,0,1,1.931,3.338,22.554,22.554,0,0,1,.911,2.243,22.549,22.549,0,0,1,1.159,5.5C-855.848-261.576-855.821-260.946-855.82-260.311Z" transform="translate(901.317 283.018)" fill="#fff"/>
  <path id="Path_1938" data-name="Path 1938" d="M-866.53-282.937v6.781a1.927,1.927,0,0,1-1.927,1.928,1.919,1.919,0,0,1-1.363-.565,1.92,1.92,0,0,1-.565-1.363v-6.781c.621-.053,1.25-.079,1.884-.081Q-867.5-283.02-866.53-282.937Z" transform="translate(891.206 283.018)" fill="#2fd4af"/>
  <path id="Path_1939" data-name="Path 1939" d="M-880.815-271.314a1.918,1.918,0,0,1-.963.259,1.928,1.928,0,0,1-1.672-.963l-3.391-5.874a22.547,22.547,0,0,1,3.338-1.93l3.392,5.875A1.927,1.927,0,0,1-880.815-271.314Z" transform="translate(896.585 281.973)" fill="#2fd4af"/>
  <path id="Path_1940" data-name="Path 1940" d="M-889.612-262.517a1.925,1.925,0,0,1-1.67.965,1.918,1.918,0,0,1-.963-.259l-5.876-3.393a22.748,22.748,0,0,1,1.93-3.337l5.873,3.391A1.928,1.928,0,0,1-889.612-262.517Z" transform="translate(900.272 278.286)" fill="#2fd4af"/>
  <path id="Path_1941" data-name="Path 1941" d="M-901.2-248.232h6.782a1.918,1.918,0,0,0,1.362-.565,1.921,1.921,0,0,0,.565-1.362,1.928,1.928,0,0,0-1.927-1.928H-901.2Z" transform="translate(901.277 272.908)" fill="#2fd4af"/>
  <path id="Path_1942" data-name="Path 1942" d="M-889.353-238.361a1.93,1.93,0,0,1-.964,1.672l-5.873,3.391a22.718,22.718,0,0,1-1.93-3.337h0l5.876-3.392a1.927,1.927,0,0,1,2.633.705A1.916,1.916,0,0,1-889.353-238.361Z" transform="translate(900.272 269.051)" fill="#2fd4af"/>
  <path id="Path_1943" data-name="Path 1943" d="M-879.851-229.72a1.922,1.922,0,0,1-.259.963l-3.393,5.875a22.524,22.524,0,0,1-3.337-1.931l3.391-5.873a1.929,1.929,0,0,1,2.634-.705A1.927,1.927,0,0,1-879.851-229.72Z" transform="translate(896.585 266.227)" fill="#2fd4af"/>
  <path id="Path_1944" data-name="Path 1944" d="M-866.53-226.559v6.781q-.934.08-1.888.081-.994,0-1.967-.08v-6.782a1.928,1.928,0,0,1,1.928-1.928,1.923,1.923,0,0,1,1.363.565A1.925,1.925,0,0,1-866.53-226.559Z" transform="translate(891.206 265.194)" fill="#2fd4af"/>
  <path id="Path_1945" data-name="Path 1945" d="M-851.6-224.812a22.739,22.739,0,0,1-2.374,1.449q-.476.251-.964.482l-3.393-5.875a1.929,1.929,0,0,1,.706-2.634,1.923,1.923,0,0,1,.963-.258,1.929,1.929,0,0,1,1.671.964Z" transform="translate(887.349 266.227)" fill="#2fd4af"/>
  <path id="Path_1946" data-name="Path 1946" d="M-841.18-236.637a22.613,22.613,0,0,1-1.931,3.337l-5.872-3.39a1.929,1.929,0,0,1-.705-2.634,1.928,1.928,0,0,1,1.671-.965,1.928,1.928,0,0,1,.963.259Z" transform="translate(884.526 269.051)" fill="#2fd4af"/>
  <path id="Path_1947" data-name="Path 1947" d="M-837.995-250.2q0,1-.081,1.969h-6.781a1.927,1.927,0,0,1-1.927-1.927,1.917,1.917,0,0,1,.564-1.363,1.92,1.92,0,0,1,1.363-.565h6.781C-838.023-251.466-838-250.836-837.995-250.2Z" transform="translate(883.492 272.908)" fill="#2fd4af"/>
  <path id="Path_1948" data-name="Path 1948" d="M-841.18-265.2l-5.875,3.392a1.927,1.927,0,0,1-2.634-.705,1.922,1.922,0,0,1-.259-.962,1.927,1.927,0,0,1,.964-1.671l5.872-3.391A22.7,22.7,0,0,1-841.18-265.2Z" transform="translate(884.526 278.286)" fill="#2fd4af"/>
  <path id="Path_1949" data-name="Path 1949" d="M-851.6-277.89l-3.389,5.87a1.929,1.929,0,0,1-2.634.706,1.928,1.928,0,0,1-.965-1.671,1.92,1.92,0,0,1,.258-.962l3.393-5.876a22.635,22.635,0,0,1,2.453,1.346C-852.182-278.288-851.888-278.094-851.6-277.89Z" transform="translate(887.35 281.974)" fill="#2fd4af"/>
  <path id="Path_1950" data-name="Path 1950" d="M-850.441-259.507a22.657,22.657,0,0,1-1.664,8.594,22.818,22.818,0,0,1-10.456,11.563,22.352,22.352,0,0,1-2.671,1.2,22.637,22.637,0,0,1-7.919,1.432,22.635,22.635,0,0,1-8.1-1.469,22.421,22.421,0,0,1-3.617-1.753c.154.063.308.123.462.182a22.689,22.689,0,0,0,8.1,1.469,22.661,22.661,0,0,0,7.918-1.433,22.264,22.264,0,0,0,2.671-1.2,22.817,22.817,0,0,0,10.457-11.563,22.649,22.649,0,0,0,1.664-8.593,22.7,22.7,0,0,0-1.242-7.382,22.788,22.788,0,0,0-9.388-11.829c-.144-.092-.29-.18-.436-.269.049.02.1.038.144.058.13.052.256.106.384.162a22.465,22.465,0,0,1,3.061,1.62,22.791,22.791,0,0,1,9.389,11.829A22.685,22.685,0,0,1-850.441-259.507Z" transform="translate(895.938 282.214)" opacity="0.1"/>
</svg>
