<svg xmlns="http://www.w3.org/2000/svg" xmlns:xlink="http://www.w3.org/1999/xlink" width="24.281" height="6.281" viewBox="0 0 24.281 6.281">
  <defs>
    <clipPath id="clip-path">
      <rect id="Rectangle_1370" data-name="Rectangle 1370" width="6.281" height="6.281" fill="none"/>
    </clipPath>
    <clipPath id="clip-path-3">
      <rect id="Rectangle_1368" data-name="Rectangle 1368" width="4.752" height="6.052" fill="none"/>
    </clipPath>
  </defs>
  <g id="Group_5294" data-name="Group 5294" transform="translate(-625.32 -5425.152)">
    <g id="Group_5227" data-name="Group 5227" transform="translate(625.32 5425.152)" clip-path="url(#clip-path)">
      <g id="Group_5226" data-name="Group 5226">
        <g id="Group_5225" data-name="Group 5225" clip-path="url(#clip-path)">
          <path id="Path_2033" data-name="Path 2033" d="M6.281,3.135A3.137,3.137,0,0,1,4.608,5.917a3.082,3.082,0,0,1-.369.166A3.141,3.141,0,1,1,2.112.172L2.149.16A3.149,3.149,0,0,1,4.338.236l.053.022a3.1,3.1,0,0,1,.423.224A3.136,3.136,0,0,1,6.281,3.135" transform="translate(0 0)" fill="#fff"/>
          <path id="Path_2034" data-name="Path 2034" d="M101.1.236A7.3,7.3,0,0,0,99.937,3.1c-.006.032-.01.058-.012.077h0v.005c0,.019,0,.028,0,.028L99.908,3.2l-.031-.029h0l0,0h0a3.645,3.645,0,0,1-1-2.993L98.909.16A3.149,3.149,0,0,1,101.1.236" transform="translate(-96.759 0)" fill="#29d6ae"/>
          <path id="Path_2035" data-name="Path 2035" d="M150.555,100.243a3.128,3.128,0,0,1-.23,1.186,7.32,7.32,0,0,0-2.819-1.135l-.056-.009h0l-.01,0-.049-.007h0l0,0c.006-.007.027-.031.064-.067a3.649,3.649,0,0,1,2.932-.983,3.131,3.131,0,0,1,.171,1.019" transform="translate(-144.274 -97.109)" fill="#29d6ae"/>
          <path id="Path_2036" data-name="Path 2036" d="M98.268,151.589a3.152,3.152,0,0,1-2.211-.005,7.324,7.324,0,0,0,1.148-2.9c0-.025.006-.039.006-.039s.018.016.051.048a3.64,3.64,0,0,1,1.007,2.9" transform="translate(-94.029 -145.505)" fill="#29d6ae"/>
          <path id="Path_2037" data-name="Path 2037" d="M3.169,96.336l0,0-.016.017A3.631,3.631,0,0,1,.195,97.391,3.151,3.151,0,0,1,.21,95.169a7.316,7.316,0,0,0,2.908,1.16l.048.007h0" transform="translate(0 -93.159)" fill="#29d6ae"/>
          <g id="Group_5224" data-name="Group 5224" transform="translate(1.529 0.229)" opacity="0.1">
            <g id="Group_5223" data-name="Group 5223">
              <g id="Group_5222" data-name="Group 5222" clip-path="url(#clip-path-3)">
                <path id="Path_2038" data-name="Path 2038" d="M77.164,13.738a3.137,3.137,0,0,1-1.673,2.783,3.082,3.082,0,0,1-.369.166,3.134,3.134,0,0,1-2.71-.247l.064.025a3.15,3.15,0,0,0,2.211.005,3.067,3.067,0,0,0,.369-.166,3.14,3.14,0,0,0,.206-5.435l-.06-.037.02.008.053.022a3.1,3.1,0,0,1,.423.224,3.136,3.136,0,0,1,1.468,2.652" transform="translate(-72.412 -10.832)"/>
              </g>
            </g>
          </g>
        </g>
      </g>
    </g>
    <g id="Group_5233" data-name="Group 5233" transform="translate(634.32 5425.152)" clip-path="url(#clip-path)">
      <g id="Group_5232" data-name="Group 5232">
        <g id="Group_5231" data-name="Group 5231" clip-path="url(#clip-path)">
          <path id="Path_2039" data-name="Path 2039" d="M6.281,3.135A3.137,3.137,0,0,1,4.608,5.917a3.082,3.082,0,0,1-.369.166A3.141,3.141,0,1,1,2.112.172L2.149.16A3.149,3.149,0,0,1,4.338.236l.053.022a3.1,3.1,0,0,1,.423.224A3.136,3.136,0,0,1,6.281,3.135" transform="translate(0 0)" fill="#fff"/>
          <path id="Path_2040" data-name="Path 2040" d="M101.1.236A7.3,7.3,0,0,0,99.937,3.1c-.006.032-.01.058-.012.077h0v.005c0,.019,0,.028,0,.028L99.908,3.2l-.031-.029h0l0,0h0a3.645,3.645,0,0,1-1-2.993L98.909.16A3.149,3.149,0,0,1,101.1.236" transform="translate(-96.759 0)" fill="#29d6ae"/>
          <path id="Path_2041" data-name="Path 2041" d="M150.555,100.243a3.128,3.128,0,0,1-.23,1.186,7.32,7.32,0,0,0-2.819-1.135l-.056-.009h0l-.01,0-.049-.007h0l0,0c.006-.007.027-.031.064-.067a3.649,3.649,0,0,1,2.932-.983,3.131,3.131,0,0,1,.171,1.019" transform="translate(-144.274 -97.109)" fill="#29d6ae"/>
          <path id="Path_2042" data-name="Path 2042" d="M98.268,151.589a3.152,3.152,0,0,1-2.211-.005,7.324,7.324,0,0,0,1.148-2.9c0-.025.006-.039.006-.039s.018.016.051.048a3.64,3.64,0,0,1,1.007,2.9" transform="translate(-94.029 -145.505)" fill="#29d6ae"/>
          <path id="Path_2043" data-name="Path 2043" d="M3.169,96.336l0,0-.016.017A3.631,3.631,0,0,1,.195,97.391,3.151,3.151,0,0,1,.21,95.169a7.316,7.316,0,0,0,2.908,1.16l.048.007h0" transform="translate(0 -93.159)" fill="#29d6ae"/>
          <g id="Group_5230" data-name="Group 5230" transform="translate(1.529 0.229)" opacity="0.1">
            <g id="Group_5229" data-name="Group 5229">
              <g id="Group_5228" data-name="Group 5228" clip-path="url(#clip-path-3)">
                <path id="Path_2044" data-name="Path 2044" d="M77.164,13.738a3.137,3.137,0,0,1-1.673,2.783,3.082,3.082,0,0,1-.369.166,3.134,3.134,0,0,1-2.71-.247l.064.025a3.15,3.15,0,0,0,2.211.005,3.067,3.067,0,0,0,.369-.166,3.14,3.14,0,0,0,.206-5.435l-.06-.037.02.008.053.022a3.1,3.1,0,0,1,.423.224,3.136,3.136,0,0,1,1.468,2.652" transform="translate(-72.412 -10.832)"/>
              </g>
            </g>
          </g>
        </g>
      </g>
    </g>
    <g id="Group_5239" data-name="Group 5239" transform="translate(643.32 5425.152)" clip-path="url(#clip-path)">
      <g id="Group_5238" data-name="Group 5238">
        <g id="Group_5237" data-name="Group 5237" clip-path="url(#clip-path)">
          <path id="Path_2045" data-name="Path 2045" d="M6.281,3.135A3.137,3.137,0,0,1,4.608,5.917a3.082,3.082,0,0,1-.369.166A3.141,3.141,0,1,1,2.112.172L2.149.16A3.149,3.149,0,0,1,4.338.236l.053.022a3.1,3.1,0,0,1,.423.224A3.136,3.136,0,0,1,6.281,3.135" transform="translate(0 0)" fill="#fff"/>
          <path id="Path_2046" data-name="Path 2046" d="M101.1.236A7.3,7.3,0,0,0,99.937,3.1c-.006.032-.01.058-.012.077h0v.005c0,.019,0,.028,0,.028L99.908,3.2l-.031-.029h0l0,0h0a3.645,3.645,0,0,1-1-2.993L98.909.16A3.149,3.149,0,0,1,101.1.236" transform="translate(-96.759 0)" fill="#29d6ae"/>
          <path id="Path_2047" data-name="Path 2047" d="M150.555,100.243a3.128,3.128,0,0,1-.23,1.186,7.32,7.32,0,0,0-2.819-1.135l-.056-.009h0l-.01,0-.049-.007h0l0,0c.006-.007.027-.031.064-.067a3.649,3.649,0,0,1,2.932-.983,3.131,3.131,0,0,1,.171,1.019" transform="translate(-144.274 -97.109)" fill="#29d6ae"/>
          <path id="Path_2048" data-name="Path 2048" d="M98.268,151.589a3.152,3.152,0,0,1-2.211-.005,7.324,7.324,0,0,0,1.148-2.9c0-.025.006-.039.006-.039s.018.016.051.048a3.64,3.64,0,0,1,1.007,2.9" transform="translate(-94.029 -145.505)" fill="#29d6ae"/>
          <path id="Path_2049" data-name="Path 2049" d="M3.169,96.336l0,0-.016.017A3.631,3.631,0,0,1,.195,97.391,3.151,3.151,0,0,1,.21,95.169a7.316,7.316,0,0,0,2.908,1.16l.048.007h0" transform="translate(0 -93.159)" fill="#29d6ae"/>
          <g id="Group_5236" data-name="Group 5236" transform="translate(1.529 0.229)" opacity="0.1">
            <g id="Group_5235" data-name="Group 5235">
              <g id="Group_5234" data-name="Group 5234" clip-path="url(#clip-path-3)">
                <path id="Path_2050" data-name="Path 2050" d="M77.164,13.738a3.137,3.137,0,0,1-1.673,2.783,3.082,3.082,0,0,1-.369.166,3.134,3.134,0,0,1-2.71-.247l.064.025a3.15,3.15,0,0,0,2.211.005,3.067,3.067,0,0,0,.369-.166,3.14,3.14,0,0,0,.206-5.435l-.06-.037.02.008.053.022a3.1,3.1,0,0,1,.423.224,3.136,3.136,0,0,1,1.468,2.652" transform="translate(-72.412 -10.832)"/>
              </g>
            </g>
          </g>
        </g>
      </g>
    </g>
  </g>
</svg>
