<svg xmlns="http://www.w3.org/2000/svg" width="270.905" height="42" viewBox="0 0 270.905 42">
  <g id="Group_4645" data-name="Group 4645" transform="translate(-352 -19)">
    <g id="Group_4575" data-name="Group 4575" transform="translate(355 -3)">
      <text id="rEQUIREMINTs" transform="translate(-3 55)" font-size="34" font-family="Montserrat-Light, Montserrat" font-weight="300"><tspan x="0" y="0">require</tspan><tspan y="0" font-family="Montserrat-Bold, Montserrat" font-weight="700">mints</tspan></text>
    </g>
    <g id="Group_4630" data-name="Group 4630" transform="translate(321.576 2.441)">
      <g id="Group_4605" data-name="Group 4605" transform="translate(263.613 35.959) rotate(39)">
        <path id="Path_1745" data-name="Path 1745" d="M12.1,6.038q0,.265-.022.524a5.993,5.993,0,0,1-.421,1.762q-.061.15-.13.3A6.063,6.063,0,0,1,8.876,11.4q-.126.067-.256.128-.222.1-.454.191a5.984,5.984,0,0,1-1.6.359q-.248.021-.5.021t-.523-.021a5.979,5.979,0,0,1-1.63-.369q-.218-.082-.428-.181a5.988,5.988,0,0,1-.887-.513A6.071,6.071,0,0,1,1.085,9.507,6.007,6.007,0,0,1,.572,8.62h0q-.108-.229-.2-.468A6,6,0,0,1,.022,6.562Q0,6.314,0,6.06t.022-.524A6.013,6.013,0,0,1,.4,3.871q.077-.2.168-.392a6.015,6.015,0,0,1,.513-.887A6.078,6.078,0,0,1,2.591,1.085,6.044,6.044,0,0,1,4.069.332L4.14.308a6,6,0,0,1,1.4-.286Q5.784,0,6.038,0t.524.021A6,6,0,0,1,8.356.456l.1.043L8.62.572A6.023,6.023,0,0,1,9.272.93q.119.075.235.156a6.06,6.06,0,0,1,2.019,2.393,6.022,6.022,0,0,1,.551,2.058C12.091,5.7,12.1,5.869,12.1,6.038Z" transform="translate(0 0)" fill="#fff"/>
        <path id="Path_1746" data-name="Path 1746" d="M1.025.021v1.8A.513.513,0,0,1,0,1.825V.022Q.248,0,.5,0T1.025.021Z" transform="translate(5.537 0)" fill="#2fd4af"/>
        <path id="Path_1747" data-name="Path 1747" d="M1.6,2.262a.512.512,0,0,1-.7-.188L0,.513A5.978,5.978,0,0,1,.888,0l.9,1.562A.512.512,0,0,1,1.6,2.262Z" transform="translate(2.591 0.572)" fill="#2fd4af"/>
        <path id="Path_1748" data-name="Path 1748" d="M2.263,1.6a.512.512,0,0,1-.7.188L0,.887A6.016,6.016,0,0,1,.513,0L2.075.9A.513.513,0,0,1,2.263,1.6Z" transform="translate(0.572 2.591)" fill="#2fd4af"/>
        <path id="Path_1749" data-name="Path 1749" d="M0,1.025H1.8A.513.513,0,1,0,1.8,0H0Z" transform="translate(0.022 5.537)" fill="#2fd4af"/>
        <path id="Path_1750" data-name="Path 1750" d="M2.331.512a.513.513,0,0,1-.257.445l-1.562.9A6.007,6.007,0,0,1,0,.971H0l1.562-.9a.513.513,0,0,1,.769.443Z" transform="translate(0.572 7.648)" fill="#2fd4af"/>
        <path id="Path_1751" data-name="Path 1751" d="M1.858.513A.513.513,0,0,1,1.79.769l-.9,1.562A5.982,5.982,0,0,1,0,1.818L.9.256a.513.513,0,0,1,.957.257Z" transform="translate(2.591 9.195)" fill="#2fd4af"/>
        <path id="Path_1752" data-name="Path 1752" d="M1.025.513v1.8q-.248.021-.5.021T0,2.316V.513a.513.513,0,0,1,1.025,0Z" transform="translate(5.536 9.761)" fill="#2fd4af"/>
        <path id="Path_1753" data-name="Path 1753" d="M1.858,1.818a6.066,6.066,0,0,1-.631.385Q1.1,2.27.971,2.331L.069.769A.513.513,0,1,1,.957.256Z" transform="translate(7.649 9.195)" fill="#2fd4af"/>
        <path id="Path_1754" data-name="Path 1754" d="M2.331.971a6.03,6.03,0,0,1-.513.887L.256.957A.513.513,0,1,1,.769.069Z" transform="translate(9.195 7.648)" fill="#2fd4af"/>
        <path id="Path_1755" data-name="Path 1755" d="M2.337.5q0,.265-.022.524H.513A.513.513,0,0,1,.513,0h1.8C2.33.165,2.337.333,2.337.5Z" transform="translate(9.761 5.536)" fill="#2fd4af"/>
        <path id="Path_1756" data-name="Path 1756" d="M2.331.888l-1.562.9A.513.513,0,1,1,.256.9L1.818,0A6.046,6.046,0,0,1,2.331.888Z" transform="translate(9.195 2.591)" fill="#2fd4af"/>
        <path id="Path_1757" data-name="Path 1757" d="M1.858.514l-.9,1.561a.513.513,0,1,1-.888-.512L.971,0a6.021,6.021,0,0,1,.652.358Q1.743.433,1.858.514Z" transform="translate(7.649 0.572)" fill="#2fd4af"/>
        <path id="Path_1758" data-name="Path 1758" d="M9.153,5.6a6.024,6.024,0,0,1-.443,2.285,6.067,6.067,0,0,1-2.78,3.075,5.914,5.914,0,0,1-.71.32,6.072,6.072,0,0,1-4.258-.01A5.97,5.97,0,0,1,0,10.8l.123.048a6.068,6.068,0,0,0,4.258.01,5.9,5.9,0,0,0,.71-.32A6.067,6.067,0,0,0,7.872,7.465a6.067,6.067,0,0,0,.112-4.248A6.06,6.06,0,0,0,5.488.072L5.372,0l.038.015.1.043a5.974,5.974,0,0,1,.814.431A6.039,6.039,0,0,1,9.153,5.6Z" transform="translate(2.945 0.44)" opacity="0.1"/>
      </g>
      <g id="Group_4609" data-name="Group 4609" transform="translate(277.77 35.959) rotate(39)">
        <path id="Path_1745-2" data-name="Path 1745" d="M12.1,6.038q0,.265-.022.524a5.993,5.993,0,0,1-.421,1.762q-.061.15-.13.3A6.063,6.063,0,0,1,8.876,11.4q-.126.067-.256.128-.222.1-.454.191a5.984,5.984,0,0,1-1.6.359q-.248.021-.5.021t-.523-.021a5.979,5.979,0,0,1-1.63-.369q-.218-.082-.428-.181a5.988,5.988,0,0,1-.887-.513A6.071,6.071,0,0,1,1.085,9.507,6.007,6.007,0,0,1,.572,8.62h0q-.108-.229-.2-.468A6,6,0,0,1,.022,6.562Q0,6.314,0,6.06t.022-.524A6.013,6.013,0,0,1,.4,3.871q.077-.2.168-.392a6.015,6.015,0,0,1,.513-.887A6.078,6.078,0,0,1,2.591,1.085,6.044,6.044,0,0,1,4.069.332L4.14.308a6,6,0,0,1,1.4-.286Q5.784,0,6.038,0t.524.021A6,6,0,0,1,8.356.456l.1.043L8.62.572A6.023,6.023,0,0,1,9.272.93q.119.075.235.156a6.06,6.06,0,0,1,2.019,2.393,6.022,6.022,0,0,1,.551,2.058C12.091,5.7,12.1,5.869,12.1,6.038Z" transform="translate(0 0)" fill="#fff"/>
        <path id="Path_1746-2" data-name="Path 1746" d="M1.025.021v1.8A.513.513,0,0,1,0,1.825V.022Q.248,0,.5,0T1.025.021Z" transform="translate(5.537 0)" fill="#2fd4af"/>
        <path id="Path_1747-2" data-name="Path 1747" d="M1.6,2.262a.512.512,0,0,1-.7-.188L0,.513A5.978,5.978,0,0,1,.888,0l.9,1.562A.512.512,0,0,1,1.6,2.262Z" transform="translate(2.591 0.572)" fill="#2fd4af"/>
        <path id="Path_1748-2" data-name="Path 1748" d="M2.263,1.6a.512.512,0,0,1-.7.188L0,.887A6.016,6.016,0,0,1,.513,0L2.075.9A.513.513,0,0,1,2.263,1.6Z" transform="translate(0.572 2.591)" fill="#2fd4af"/>
        <path id="Path_1749-2" data-name="Path 1749" d="M0,1.025H1.8A.513.513,0,1,0,1.8,0H0Z" transform="translate(0.022 5.537)" fill="#2fd4af"/>
        <path id="Path_1750-2" data-name="Path 1750" d="M2.331.512a.513.513,0,0,1-.257.445l-1.562.9A6.007,6.007,0,0,1,0,.971H0l1.562-.9a.513.513,0,0,1,.769.443Z" transform="translate(0.572 7.648)" fill="#2fd4af"/>
        <path id="Path_1751-2" data-name="Path 1751" d="M1.858.513A.513.513,0,0,1,1.79.769l-.9,1.562A5.982,5.982,0,0,1,0,1.818L.9.256a.513.513,0,0,1,.957.257Z" transform="translate(2.591 9.195)" fill="#2fd4af"/>
        <path id="Path_1752-2" data-name="Path 1752" d="M1.025.513v1.8q-.248.021-.5.021T0,2.316V.513a.513.513,0,0,1,1.025,0Z" transform="translate(5.536 9.761)" fill="#2fd4af"/>
        <path id="Path_1753-2" data-name="Path 1753" d="M1.858,1.818a6.066,6.066,0,0,1-.631.385Q1.1,2.27.971,2.331L.069.769A.513.513,0,1,1,.957.256Z" transform="translate(7.649 9.195)" fill="#2fd4af"/>
        <path id="Path_1754-2" data-name="Path 1754" d="M2.331.971a6.03,6.03,0,0,1-.513.887L.256.957A.513.513,0,1,1,.769.069Z" transform="translate(9.195 7.648)" fill="#2fd4af"/>
        <path id="Path_1755-2" data-name="Path 1755" d="M2.337.5q0,.265-.022.524H.513A.513.513,0,0,1,.513,0h1.8C2.33.165,2.337.333,2.337.5Z" transform="translate(9.761 5.536)" fill="#2fd4af"/>
        <path id="Path_1756-2" data-name="Path 1756" d="M2.331.888l-1.562.9A.513.513,0,1,1,.256.9L1.818,0A6.046,6.046,0,0,1,2.331.888Z" transform="translate(9.195 2.591)" fill="#2fd4af"/>
        <path id="Path_1757-2" data-name="Path 1757" d="M1.858.514l-.9,1.561a.513.513,0,1,1-.888-.512L.971,0a6.021,6.021,0,0,1,.652.358Q1.743.433,1.858.514Z" transform="translate(7.649 0.572)" fill="#2fd4af"/>
        <path id="Path_1758-2" data-name="Path 1758" d="M9.153,5.6a6.024,6.024,0,0,1-.443,2.285,6.067,6.067,0,0,1-2.78,3.075,5.914,5.914,0,0,1-.71.32,6.072,6.072,0,0,1-4.258-.01A5.97,5.97,0,0,1,0,10.8l.123.048a6.068,6.068,0,0,0,4.258.01,5.9,5.9,0,0,0,.71-.32A6.067,6.067,0,0,0,7.872,7.465a6.067,6.067,0,0,0,.112-4.248A6.06,6.06,0,0,0,5.488.072L5.372,0l.038.015.1.043a5.974,5.974,0,0,1,.814.431A6.039,6.039,0,0,1,9.153,5.6Z" transform="translate(2.945 0.44)" opacity="0.1"/>
      </g>
      <g id="Group_4610" data-name="Group 4610" transform="translate(291.927 35.959) rotate(39)">
        <path id="Path_1745-3" data-name="Path 1745" d="M12.1,6.038q0,.265-.022.524a5.993,5.993,0,0,1-.421,1.762q-.061.15-.13.3A6.063,6.063,0,0,1,8.876,11.4q-.126.067-.256.128-.222.1-.454.191a5.984,5.984,0,0,1-1.6.359q-.248.021-.5.021t-.523-.021a5.979,5.979,0,0,1-1.63-.369q-.218-.082-.428-.181a5.988,5.988,0,0,1-.887-.513A6.071,6.071,0,0,1,1.085,9.507,6.007,6.007,0,0,1,.572,8.62h0q-.108-.229-.2-.468A6,6,0,0,1,.022,6.562Q0,6.314,0,6.06t.022-.524A6.013,6.013,0,0,1,.4,3.871q.077-.2.168-.392a6.015,6.015,0,0,1,.513-.887A6.078,6.078,0,0,1,2.591,1.085,6.044,6.044,0,0,1,4.069.332L4.14.308a6,6,0,0,1,1.4-.286Q5.784,0,6.038,0t.524.021A6,6,0,0,1,8.356.456l.1.043L8.62.572A6.023,6.023,0,0,1,9.272.93q.119.075.235.156a6.06,6.06,0,0,1,2.019,2.393,6.022,6.022,0,0,1,.551,2.058C12.091,5.7,12.1,5.869,12.1,6.038Z" transform="translate(0 0)" fill="#fff"/>
        <path id="Path_1746-3" data-name="Path 1746" d="M1.025.021v1.8A.513.513,0,0,1,0,1.825V.022Q.248,0,.5,0T1.025.021Z" transform="translate(5.537 0)" fill="#2fd4af"/>
        <path id="Path_1747-3" data-name="Path 1747" d="M1.6,2.262a.512.512,0,0,1-.7-.188L0,.513A5.978,5.978,0,0,1,.888,0l.9,1.562A.512.512,0,0,1,1.6,2.262Z" transform="translate(2.591 0.572)" fill="#2fd4af"/>
        <path id="Path_1748-3" data-name="Path 1748" d="M2.263,1.6a.512.512,0,0,1-.7.188L0,.887A6.016,6.016,0,0,1,.513,0L2.075.9A.513.513,0,0,1,2.263,1.6Z" transform="translate(0.572 2.591)" fill="#2fd4af"/>
        <path id="Path_1749-3" data-name="Path 1749" d="M0,1.025H1.8A.513.513,0,1,0,1.8,0H0Z" transform="translate(0.022 5.537)" fill="#2fd4af"/>
        <path id="Path_1750-3" data-name="Path 1750" d="M2.331.512a.513.513,0,0,1-.257.445l-1.562.9A6.007,6.007,0,0,1,0,.971H0l1.562-.9a.513.513,0,0,1,.769.443Z" transform="translate(0.572 7.648)" fill="#2fd4af"/>
        <path id="Path_1751-3" data-name="Path 1751" d="M1.858.513A.513.513,0,0,1,1.79.769l-.9,1.562A5.982,5.982,0,0,1,0,1.818L.9.256a.513.513,0,0,1,.957.257Z" transform="translate(2.591 9.195)" fill="#2fd4af"/>
        <path id="Path_1752-3" data-name="Path 1752" d="M1.025.513v1.8q-.248.021-.5.021T0,2.316V.513a.513.513,0,0,1,1.025,0Z" transform="translate(5.536 9.761)" fill="#2fd4af"/>
        <path id="Path_1753-3" data-name="Path 1753" d="M1.858,1.818a6.066,6.066,0,0,1-.631.385Q1.1,2.27.971,2.331L.069.769A.513.513,0,1,1,.957.256Z" transform="translate(7.649 9.195)" fill="#2fd4af"/>
        <path id="Path_1754-3" data-name="Path 1754" d="M2.331.971a6.03,6.03,0,0,1-.513.887L.256.957A.513.513,0,1,1,.769.069Z" transform="translate(9.195 7.648)" fill="#2fd4af"/>
        <path id="Path_1755-3" data-name="Path 1755" d="M2.337.5q0,.265-.022.524H.513A.513.513,0,0,1,.513,0h1.8C2.33.165,2.337.333,2.337.5Z" transform="translate(9.761 5.536)" fill="#2fd4af"/>
        <path id="Path_1756-3" data-name="Path 1756" d="M2.331.888l-1.562.9A.513.513,0,1,1,.256.9L1.818,0A6.046,6.046,0,0,1,2.331.888Z" transform="translate(9.195 2.591)" fill="#2fd4af"/>
        <path id="Path_1757-3" data-name="Path 1757" d="M1.858.514l-.9,1.561a.513.513,0,1,1-.888-.512L.971,0a6.021,6.021,0,0,1,.652.358Q1.743.433,1.858.514Z" transform="translate(7.649 0.572)" fill="#2fd4af"/>
        <path id="Path_1758-3" data-name="Path 1758" d="M9.153,5.6a6.024,6.024,0,0,1-.443,2.285,6.067,6.067,0,0,1-2.78,3.075,5.914,5.914,0,0,1-.71.32,6.072,6.072,0,0,1-4.258-.01A5.97,5.97,0,0,1,0,10.8l.123.048a6.068,6.068,0,0,0,4.258.01,5.9,5.9,0,0,0,.71-.32A6.067,6.067,0,0,0,7.872,7.465a6.067,6.067,0,0,0,.112-4.248A6.06,6.06,0,0,0,5.488.072L5.372,0l.038.015.1.043a5.974,5.974,0,0,1,.814.431A6.039,6.039,0,0,1,9.153,5.6Z" transform="translate(2.945 0.44)" opacity="0.1"/>
      </g>
    </g>
  </g>
</svg>
