<svg xmlns="http://www.w3.org/2000/svg" xmlns:xlink="http://www.w3.org/1999/xlink" width="274.404" height="38.082" viewBox="0 0 274.404 38.082">
  <defs>
    <clipPath id="clip-path">
      <rect id="Rectangle_1239" data-name="Rectangle 1239" width="22.164" height="22.164" fill="none"/>
    </clipPath>
    <clipPath id="clip-path-3">
      <rect id="Rectangle_1237" data-name="Rectangle 1237" width="16.22" height="21.655" fill="none"/>
    </clipPath>
    <clipPath id="clip-path-4">
      <rect id="Rectangle_1242" data-name="Rectangle 1242" width="22.163" height="22.162" fill="none"/>
    </clipPath>
    <clipPath id="clip-path-6">
      <rect id="Rectangle_1240" data-name="Rectangle 1240" width="16.767" height="21.355" fill="none"/>
    </clipPath>
  </defs>
  <g id="Group_4800" data-name="Group 4800" transform="translate(9052.199 22550.082)">
    <text id="requiremints" transform="translate(-9052.199 -22520)" font-size="34" font-family="Helvetica"><tspan x="0" y="0">requiremints</tspan></text>
    <g id="Group_4800-2" data-name="Group 4800" transform="translate(-8812.219 -22550.082)">
      <g id="Group_4610" data-name="Group 4610" transform="translate(12.26 0)" clip-path="url(#clip-path)">
        <g id="Group_4609" data-name="Group 4609">
          <g id="Group_4608" data-name="Group 4608" clip-path="url(#clip-path)">
            <path id="Path_1984" data-name="Path 1984" d="M13.5.269a11.079,11.079,0,0,1,8.471,12.852c-.024.127-.05.253-.078.379A11.079,11.079,0,1,1,13.5.269" transform="translate(0 0.001)" fill="#fff"/>
            <path id="Path_1985" data-name="Path 1985" d="M53.994,48.049a6.71,6.71,0,0,1,4.23,2.973,5.559,5.559,0,0,1-1.715,7.665,4.594,4.594,0,0,1-6.337-1.418,3.828,3.828,0,0,1,1.18-5.275,3.208,3.208,0,0,1,4.427.991,2.711,2.711,0,0,1-.838,3.745,2.322,2.322,0,0,1-3.2-.717.744.744,0,0,1,1.258-.8.833.833,0,0,0,1.148.257,1.225,1.225,0,0,0,.378-1.691,1.714,1.714,0,0,0-2.37-.531,2.337,2.337,0,0,0-.721,3.221,3.106,3.106,0,0,0,4.283.959,4.072,4.072,0,0,0,1.256-5.611,5.268,5.268,0,0,0-7.27-1.627,6.77,6.77,0,0,0-2.091,9.343,8.649,8.649,0,0,0,11.937,2.671,10.941,10.941,0,0,0,4.133-4.771c-.024.127-.05.253-.078.379a11.016,11.016,0,0,1-3.136,5.57c-.04.027-.082.053-.123.079a10.141,10.141,0,0,1-13.991-3.131,8.248,8.248,0,0,1,2.551-11.4,6.717,6.717,0,0,1,5.094-.887" transform="translate(-41.705 -44.316)" fill="#29d6ae"/>
            <g id="Group_4607" data-name="Group 4607" transform="translate(5.944 0.508)" opacity="0.1">
              <g id="Group_4606" data-name="Group 4606">
                <g id="Group_4605" data-name="Group 4605" clip-path="url(#clip-path-3)">
                  <path id="Path_1986" data-name="Path 1986" d="M95.8,15.334A11.079,11.079,0,0,1,87.349,28.2c-.126.029-.253.054-.379.078a11.016,11.016,0,0,1-6.356-.673c-.288-.121-.568-.254-.843-.4a11,11,0,0,0,5.372.312c.127-.024.253-.049.379-.078a11.079,11.079,0,0,0,2.7-20.623A11.074,11.074,0,0,1,95.8,15.334" transform="translate(-79.771 -6.821)"/>
                </g>
              </g>
            </g>
          </g>
        </g>
      </g>
      <g id="Group_4617" data-name="Group 4617" transform="translate(0 12.999)" clip-path="url(#clip-path-4)">
        <g id="Group_4616" data-name="Group 4616">
          <g id="Group_4615" data-name="Group 4615" clip-path="url(#clip-path-4)">
            <path id="Path_1987" data-name="Path 1987" d="M22.162,11.061a11.07,11.07,0,0,1-5.9,9.819,10.875,10.875,0,0,1-1.3.585A11.083,11.083,0,1,1,7.453.608l.13-.044a11.112,11.112,0,0,1,7.723.271c.063.025.125.052.187.079a10.946,10.946,0,0,1,1.491.789,11.064,11.064,0,0,1,5.178,9.358" transform="translate(0 0)" fill="#fff"/>
            <path id="Path_1988" data-name="Path 1988" d="M106.788.835a25.74,25.74,0,0,0-4.093,10.1c-.02.114-.034.205-.044.27v0l0,.019c-.01.065-.014.1-.014.1l-.042-.038c-.026-.024-.063-.058-.11-.1l0,0h0l-.01-.009h0A12.86,12.86,0,0,1,98.935.608l.13-.044a11.112,11.112,0,0,1,7.723.271" transform="translate(-91.482 0)" fill="#29d6ae"/>
            <path id="Path_1989" data-name="Path 1989" d="M158.567,102.873a11.038,11.038,0,0,1-.81,4.186,25.828,25.828,0,0,0-9.947-4c-.076-.013-.143-.024-.2-.032h0l-.036-.006-.171-.025h0l-.016,0,.006-.007c.021-.024.1-.108.226-.237a12.874,12.874,0,0,1,10.345-3.47,11.047,11.047,0,0,1,.6,3.6" transform="translate(-136.405 -91.812)" fill="#29d6ae"/>
            <path id="Path_1990" data-name="Path 1990" d="M103.858,159.034a11.121,11.121,0,0,1-7.8-.018,25.843,25.843,0,0,0,4.049-10.235c.014-.09.02-.137.02-.137s.065.057.179.169a12.844,12.844,0,0,1,3.553,10.221" transform="translate(-88.9 -137.569)" fill="#29d6ae"/>
            <path id="Path_1991" data-name="Path 1991" d="M11.182,99.288l-.015.017c-.012.013-.03.034-.056.061A12.813,12.813,0,0,1,.688,103.01a11.118,11.118,0,0,1,.053-7.841A25.814,25.814,0,0,0,11,99.262l.169.024.012,0" transform="translate(0 -88.078)" fill="#29d6ae"/>
            <g id="Group_4614" data-name="Group 4614" transform="translate(5.395 0.807)" opacity="0.1">
              <g id="Group_4613" data-name="Group 4613">
                <g id="Group_4612" data-name="Group 4612" clip-path="url(#clip-path-6)">
                  <path id="Path_1992" data-name="Path 1992" d="M89.179,21.086a11.07,11.07,0,0,1-5.9,9.819,10.876,10.876,0,0,1-1.3.585,11.059,11.059,0,0,1-9.562-.872c.075.031.15.06.226.089a11.115,11.115,0,0,0,7.8.018,10.826,10.826,0,0,0,1.3-.585,11.08,11.08,0,0,0,.726-19.176c-.07-.045-.141-.088-.212-.131l.07.028c.063.025.125.052.187.079A10.946,10.946,0,0,1,84,11.728a11.064,11.064,0,0,1,5.178,9.358" transform="translate(-72.412 -10.832)"/>
                </g>
              </g>
            </g>
          </g>
        </g>
      </g>
    </g>
  </g>
</svg>
