<svg id="logo-2" xmlns="http://www.w3.org/2000/svg" xmlns:xlink="http://www.w3.org/1999/xlink" width="156.465" height="48.914" viewBox="0 0 156.465 48.914">
  <defs>
    <linearGradient id="linear-gradient" x1="0.104" y1="0.699" x2="0.694" y2="0.405" gradientUnits="objectBoundingBox">
      <stop offset="0" stop-color="#003b8e"/>
      <stop offset="1" stop-color="#48b9db"/>
    </linearGradient>
  </defs>
  <path id="Path_1" data-name="Path 1" d="M296.65,297.413c.145-6.225.005-13.4.005-19.8,0-5.171.915-5.781,5.075-8.093l8.378-4.829c2.512-1.438,1.931-1.478,3.17-.765a5.524,5.524,0,0,1,1.008.618l-11.718,6.8c-1.4.829-2.841,1.345-3.529,2.745-.657,1.338-.376,4.127-.376,5.835v18.746c.88.246,3.968,2.4,5.186,2.9.157-2.356.016-10.21.016-13.17v-6.6c0-5.065.913-5.655,5.179-8.043l10.468-6.037c.314-.109.707.2,1.031.393l.829.49c.263.211.1.068.229.238l-3.917,2.221q-1.956,1.116-3.978,2.295c-1.333.774-2.556,1.488-3.912,2.251-4.458,2.506-3.932,2.527-3.932,8.5,0,2.823-.116,17.133.028,18.68.933.5,1.874,1.056,2.791,1.608a25.251,25.251,0,0,0,2.912,1.62c-.021-4.917,0-9.839,0-14.757,0-2.378-.11-5.027,0-7.371a5.693,5.693,0,0,1,2.879-4.6c2.382-1.488,6.82-3.973,9.405-5.444.769-.437,8.914-5.037,9.387-5.477-.41-.412-13.908-8.032-15.744-9.131-4.095-2.452-4.858-2.987-8.849-.6-4.472,2.676-9.241,5.314-13.811,7.975-2.017,1.174-4.044,1.871-4.046,5.386v18.707c0,3.61-.265,3.321,3.771,5.552a22.3,22.3,0,0,0,2.058,1.155Zm16.937,8.578,0-21.338c-.007-2.6,1.1-3.216,2.819-4.2,3.034-1.743,5.989-3.448,9.008-5.188,1.533-.883,2.953-1.687,4.464-2.576.767-.451,1.452-.848,2.238-1.283a22.136,22.136,0,0,1,2.231-1.257c.178,3.265.016,7.008.016,10.326,0,1.723.014,3.452,0,5.174a3.968,3.968,0,0,1-1.7,3.476c-1.928,1.24-4.038,2.311-5.991,3.512l7.753,2.078-7.354,3.98-7.359-1.972-.005,5.958c-.992.594-2.042,1.119-3.045,1.69a28.924,28.924,0,0,1-3.076,1.622Zm6.125-15.27c-.01-4.654.239-4.892,3.54-6.827,1.674-.982,4.932-3.038,6.442-3.8.15,1.364.122,3.566-.491,4.575a8.367,8.367,0,0,1-2.959,2.208C324.957,287.619,320.609,290.324,319.713,290.721Z" transform="translate(-290.818 -257.099)" fill-rule="evenodd" fill="url(#linear-gradient)"/>
  <g id="Group_1" data-name="Group 1" transform="translate(51.452 16.289)">
    <path id="Path_2" data-name="Path 2" d="M392,292.228v-15.9h-3.771l-4.18,6.724-4.18-6.724H376.1v15.9h3.453V281.915l4.43,6.724h.091l4.475-6.792v10.381Z" transform="translate(-376.104 -276.054)" fill="#bfbfbf" fill-rule="evenodd"/>
    <path id="Path_3" data-name="Path 3" d="M421.794,276.327h-3.975l-3.862,6.383-3.793-6.383h-4.089l6.11,9.631v6.269h3.5V285.89Z" transform="translate(-387.994 -276.054)" fill="#bfbfbf" fill-rule="evenodd"/>
    <path id="Path_4" data-name="Path 4" d="M449.487,292.228l-3.884-5.679a5.468,5.468,0,0,0,2.464-1.783,4.985,4.985,0,0,0,.942-3.146v-.045a4.869,4.869,0,0,0-1.578-3.862,6.48,6.48,0,0,0-4.419-1.386h-7.268v15.9h3.5V287.14h2.749l3.407,5.088Zm-4.02-10.427a2.077,2.077,0,0,1-.693,1.636,2.905,2.905,0,0,1-1.987.613h-3.544v-4.566h3.476a3.211,3.211,0,0,1,2.022.568,2.03,2.03,0,0,1,.727,1.7Z" transform="translate(-399.764 -276.054)" fill="#bfbfbf" fill-rule="evenodd"/>
    <path id="Path_5" data-name="Path 5" d="M478.7,284.1v-.046a8.164,8.164,0,0,0-.624-3.191,7.826,7.826,0,0,0-1.75-2.589,8.4,8.4,0,0,0-2.669-1.749,8.661,8.661,0,0,0-3.384-.648,8.749,8.749,0,0,0-3.4.648,8.134,8.134,0,0,0-4.441,4.384,8.04,8.04,0,0,0-.636,3.191v.045a8.153,8.153,0,0,0,.625,3.191,7.816,7.816,0,0,0,1.749,2.589,8.4,8.4,0,0,0,2.669,1.749,9.194,9.194,0,0,0,6.78,0,8.13,8.13,0,0,0,4.441-4.384,8.034,8.034,0,0,0,.636-3.191Zm-3.657.045a5.217,5.217,0,0,1-.352,1.919,5.033,5.033,0,0,1-.977,1.579,4.413,4.413,0,0,1-1.51,1.068,4.778,4.778,0,0,1-1.931.386,4.64,4.64,0,0,1-1.942-.4,4.789,4.789,0,0,1-2.521-2.669,5.284,5.284,0,0,1-.352-1.931v-.046a5.194,5.194,0,0,1,.352-1.919,5.021,5.021,0,0,1,.977-1.579,4.44,4.44,0,0,1,1.5-1.068,4.751,4.751,0,0,1,1.942-.386,4.664,4.664,0,0,1,1.931.4,4.768,4.768,0,0,1,2.533,2.669,5.311,5.311,0,0,1,.352,1.931Z" transform="translate(-410.1 -275.875)" fill="#bfbfbf" fill-rule="evenodd"/>
    <path id="Path_6" data-name="Path 6" d="M508.955,289.8v-6.905H502.05v3.021h3.521V288.2a5.509,5.509,0,0,1-3.293.962,4.886,4.886,0,0,1-1.943-.375,4.562,4.562,0,0,1-1.522-1.06,4.757,4.757,0,0,1-1-1.605,5.6,5.6,0,0,1-.352-2.014v-.045a5.229,5.229,0,0,1,.352-1.923,4.846,4.846,0,0,1,2.431-2.642,4.071,4.071,0,0,1,1.783-.4,6.405,6.405,0,0,1,1.249.113,5.561,5.561,0,0,1,1.056.319,5.9,5.9,0,0,1,.943.5,8.823,8.823,0,0,1,.909.681l2.2-2.658a10.55,10.55,0,0,0-1.272-.931,7.548,7.548,0,0,0-1.408-.681,9.256,9.256,0,0,0-1.624-.421,11.73,11.73,0,0,0-1.942-.148,8.437,8.437,0,0,0-3.339.648,8.148,8.148,0,0,0-5,7.576v.045a8.554,8.554,0,0,0,.614,3.271A7.7,7.7,0,0,0,496.133,290a7.83,7.83,0,0,0,2.635,1.7,9.067,9.067,0,0,0,3.4.614,9.6,9.6,0,0,0,3.873-.738A11.64,11.64,0,0,0,508.955,289.8Z" transform="translate(-422.796 -275.875)" fill="#bfbfbf" fill-rule="evenodd"/>
    <path id="Path_7" data-name="Path 7" d="M539.086,292.153l-6.814-16.014h-3.226l-6.814,16.014H525.8l1.454-3.567h6.724l1.453,3.567Zm-6.36-6.655H528.5l2.113-5.156Z" transform="translate(-434.074 -275.98)" fill="#bfbfbf" fill-rule="evenodd"/>
  </g>
</svg>
