<svg xmlns="http://www.w3.org/2000/svg" xmlns:xlink="http://www.w3.org/1999/xlink" width="122" height="85.949" viewBox="0 0 122 85.949">
  <defs>
    <clipPath id="clip-path">
      <rect id="Rectangle_1239" data-name="Rectangle 1239" width="34.637" height="34.636" fill="none"/>
    </clipPath>
    <clipPath id="clip-path-3">
      <rect id="Rectangle_1237" data-name="Rectangle 1237" width="25.347" height="33.841" fill="none"/>
    </clipPath>
    <clipPath id="clip-path-4">
      <rect id="Rectangle_1242" data-name="Rectangle 1242" width="34.635" height="34.635" fill="none"/>
    </clipPath>
    <clipPath id="clip-path-6">
      <rect id="Rectangle_1240" data-name="Rectangle 1240" width="26.203" height="33.373" fill="none"/>
    </clipPath>
  </defs>
  <g id="Group_6501" data-name="Group 6501" transform="translate(-880 -846.225)">
    <text id="requiremints" transform="translate(880 927.174)" font-size="22" font-family="Helvetica"><tspan x="0" y="0">requiremints</tspan></text>
    <g id="Group_4800" data-name="Group 4800" transform="translate(927.602 846.225)">
      <g id="Group_4610" data-name="Group 4610" transform="translate(19.159 0)" clip-path="url(#clip-path)">
        <g id="Group_4609" data-name="Group 4609">
          <g id="Group_4608" data-name="Group 4608" clip-path="url(#clip-path)">
            <path id="Path_1984" data-name="Path 1984" d="M21.1.421A17.314,17.314,0,0,1,34.337,20.5c-.037.2-.078.4-.122.593A17.314,17.314,0,1,1,21.1.421" transform="translate(0 0.001)" fill="#fff"/>
            <path id="Path_1985" data-name="Path 1985" d="M59.02,48.142a10.486,10.486,0,0,1,6.611,4.647A8.687,8.687,0,0,1,62.95,64.767a7.179,7.179,0,0,1-9.9-2.216,5.982,5.982,0,0,1,1.845-8.244,5.013,5.013,0,0,1,6.918,1.548,4.236,4.236,0,0,1-1.31,5.853,3.629,3.629,0,0,1-5.006-1.12,1.163,1.163,0,0,1,1.965-1.244,1.3,1.3,0,0,0,1.793.4,1.915,1.915,0,0,0,.591-2.643,2.679,2.679,0,0,0-3.7-.829,3.653,3.653,0,0,0-1.127,5.033,4.854,4.854,0,0,0,6.693,1.5,6.364,6.364,0,0,0,1.962-8.769,8.233,8.233,0,0,0-11.361-2.542A10.58,10.58,0,0,0,49.04,66.1a13.516,13.516,0,0,0,18.654,4.174,17.1,17.1,0,0,0,6.459-7.455c-.037.2-.078.4-.122.593a17.216,17.216,0,0,1-4.9,8.7c-.062.042-.127.083-.192.124a15.848,15.848,0,0,1-21.865-4.893A12.889,12.889,0,0,1,51.06,49.528a10.5,10.5,0,0,1,7.961-1.386" transform="translate(-39.816 -42.308)" fill="#29d6ae"/>
            <g id="Group_4607" data-name="Group 4607" transform="translate(9.288 0.794)" opacity="0.1">
              <g id="Group_4606" data-name="Group 4606">
                <g id="Group_4605" data-name="Group 4605" clip-path="url(#clip-path-3)">
                  <path id="Path_1986" data-name="Path 1986" d="M104.813,20.124a17.314,17.314,0,0,1-13.2,20.11c-.2.045-.395.085-.593.122A17.215,17.215,0,0,1,81.088,39.3c-.449-.189-.888-.4-1.317-.621a17.183,17.183,0,0,0,8.4.488c.2-.037.4-.077.592-.122A17.314,17.314,0,0,0,92.976,6.821a17.306,17.306,0,0,1,11.836,13.3" transform="translate(-79.771 -6.821)"/>
                </g>
              </g>
            </g>
          </g>
        </g>
      </g>
      <g id="Group_4617" data-name="Group 4617" transform="translate(0 20.314)" clip-path="url(#clip-path-4)">
        <g id="Group_4616" data-name="Group 4616">
          <g id="Group_4615" data-name="Group 4615" clip-path="url(#clip-path-4)">
            <path id="Path_1987" data-name="Path 1987" d="M34.635,17.285A17.3,17.3,0,0,1,25.409,32.63a17,17,0,0,1-2.034.914A17.321,17.321,0,1,1,11.648.951l.2-.069a17.366,17.366,0,0,1,12.069.424c.1.039.2.081.292.123a17.106,17.106,0,0,1,2.33,1.233,17.29,17.29,0,0,1,8.092,14.624" transform="translate(0 0)" fill="#fff"/>
            <path id="Path_1988" data-name="Path 1988" d="M111.257,1.305a40.226,40.226,0,0,0-6.4,15.783c-.031.179-.053.321-.068.423v0c0,.011,0,.02,0,.03-.015.1-.022.155-.022.155s-.023-.02-.066-.059-.1-.091-.173-.162a.013.013,0,0,1,0,0h0l-.016-.014h0A20.1,20.1,0,0,1,98.985.951l.2-.069a17.366,17.366,0,0,1,12.069.424" transform="translate(-87.337 0)" fill="#29d6ae"/>
            <path id="Path_1989" data-name="Path 1989" d="M164.86,104.938a17.249,17.249,0,0,1-1.266,6.542,40.362,40.362,0,0,0-15.545-6.256c-.119-.02-.224-.037-.311-.05h0l-.056-.009-.268-.039h0l-.025,0,.009-.011c.033-.037.151-.169.353-.37a20.118,20.118,0,0,1,16.167-5.422,17.263,17.263,0,0,1,.944,5.619" transform="translate(-130.225 -87.652)" fill="#29d6ae"/>
            <path id="Path_1990" data-name="Path 1990" d="M108.248,164.881a17.379,17.379,0,0,1-12.191-.028,40.386,40.386,0,0,0,6.327-15.995c.022-.141.031-.214.031-.214s.1.089.28.264a20.071,20.071,0,0,1,5.552,15.973" transform="translate(-84.872 -131.336)" fill="#29d6ae"/>
            <path id="Path_1991" data-name="Path 1991" d="M17.474,101.605l-.024.026c-.018.02-.047.053-.087.1a20.024,20.024,0,0,1-16.288,5.7,17.374,17.374,0,0,1,.082-12.253,40.34,40.34,0,0,0,16.034,6.4l.265.037.019,0" transform="translate(0 -84.088)" fill="#29d6ae"/>
            <g id="Group_4614" data-name="Group 4614" transform="translate(8.432 1.261)" opacity="0.1">
              <g id="Group_4613" data-name="Group 4613">
                <g id="Group_4612" data-name="Group 4612" clip-path="url(#clip-path-6)">
                  <path id="Path_1992" data-name="Path 1992" d="M98.615,26.856A17.3,17.3,0,0,1,89.39,42.2a17,17,0,0,1-2.034.914,17.283,17.283,0,0,1-14.944-1.362c.117.049.235.094.352.139a17.37,17.37,0,0,0,12.191.028,16.917,16.917,0,0,0,2.033-.915,17.315,17.315,0,0,0,1.135-29.968c-.11-.07-.221-.137-.332-.2.037.015.074.029.11.044.1.039.2.081.292.123a17.107,17.107,0,0,1,2.33,1.233,17.29,17.29,0,0,1,8.092,14.624" transform="translate(-72.412 -10.832)"/>
                </g>
              </g>
            </g>
          </g>
        </g>
      </g>
    </g>
  </g>
</svg>
