<svg xmlns="http://www.w3.org/2000/svg" xmlns:xlink="http://www.w3.org/1999/xlink" width="604.659" height="678.112" viewBox="0 0 604.659 678.112">
  <defs>
    <linearGradient id="linear-gradient" x1="0.104" y1="0.699" x2="0.694" y2="0.405" gradientUnits="objectBoundingBox">
      <stop offset="0" stop-color="#003b8e"/>
      <stop offset="1" stop-color="#48b9db"/>
    </linearGradient>
  </defs>
  <g id="page404" opacity="0.107">
    <path id="Path_1" data-name="Path 1" d="M371.669,815.987c2.008-86.3.075-185.74.075-274.5,0-71.686,12.68-80.15,70.355-112.2l116.146-66.942c34.826-19.931,26.772-20.491,43.942-10.605,5.077,2.927,10.037,4.968,13.975,8.572L453.708,454.569c-19.47,11.491-39.393,18.642-48.919,38.054-9.108,18.55-5.211,57.216-5.211,80.893V833.4c12.2,3.412,55.016,33.287,71.894,40.154,2.175-32.66.226-141.546.226-182.578V599.444c0-70.213,12.663-78.4,71.8-111.5l145.117-83.687c4.358-1.514,9.8,2.8,14.294,5.453L714.4,416.5c3.647,2.927,1.4.937,3.17,3.295l-54.3,30.8q-27.123,15.468-55.141,31.815c-18.484,10.731-35.437,20.633-54.23,31.2-61.8,34.743-54.506,35.036-54.506,117.878,0,39.133-1.614,237.527.385,258.964,12.93,6.908,25.986,14.636,38.69,22.3,8.916,5.378,31.707,19.554,40.372,22.465-.293-68.164-.017-136.395-.017-204.575,0-32.961-1.531-69.694.067-102.187.744-15.021,6.373-28.353,13.03-38.682,7.218-11.2,15.665-18.015,26.889-25.024,33.028-20.625,94.543-55.075,130.39-75.466,10.664-6.064,123.573-69.828,130.13-75.934C873.655,407.631,686.518,302,661.076,286.76c-56.765-33.99-67.353-41.417-122.67-8.322C476.415,315.531,410.292,352.106,346.946,389c-27.968,16.275-56.062,25.944-56.1,74.67l.017,259.341c0,50.048-3.672,46.042,52.273,76.971,9.233,5.11,18.768,11.926,28.528,16.008ZM606.478,934.91l.033-295.822c-.092-36.006,15.314-44.587,39.083-58.262,42.061-24.171,83.026-47.806,124.886-71.919,21.252-12.236,40.94-23.394,61.883-35.713,10.63-6.256,20.131-11.759,31.029-17.781,8.213-4.533,22.389-14.277,30.928-17.421,2.468,45.264.218,97.152.218,143.152,0,23.887.2,47.857.025,71.736-.184,24-10.613,39.81-23.619,48.182-26.722,17.187-55.978,32.041-83.052,48.693l107.482,28.8L793.422,833.734,691.4,806.393l-.075,82.6c-13.758,8.238-28.3,15.507-42.211,23.427-7.285,4.139-36.382,21.076-42.638,22.489Zm84.916-211.692c-.142-64.526,3.312-67.812,49.078-94.652,23.209-13.607,68.373-42.119,89.307-52.682,2.074,18.909,1.69,49.437-6.808,63.43-7.686,12.663-25.961,21.929-41.024,30.611C764.1,680.211,703.823,717.714,691.394,723.217Z" transform="translate(-290.818 -257.099)" fill-rule="evenodd" fill="url(#linear-gradient)"/>
  </g>
</svg>
