<svg xmlns="http://www.w3.org/2000/svg" xmlns:xlink="http://www.w3.org/1999/xlink" width="33.117" height="33.117" viewBox="0 0 33.117 33.117">
  <defs>
    <clipPath id="clip-path">
      <rect id="Rectangle_1242" data-name="Rectangle 1242" width="33.117" height="33.117" fill="none"/>
    </clipPath>
    <clipPath id="clip-path-3">
      <rect id="Rectangle_1240" data-name="Rectangle 1240" width="25.055" height="31.911" fill="none"/>
    </clipPath>
  </defs>
  <g id="Group_4617" data-name="Group 4617" clip-path="url(#clip-path)">
    <g id="Group_4616" data-name="Group 4616">
      <g id="Group_4615" data-name="Group 4615" clip-path="url(#clip-path)">
        <path id="Path_1987" data-name="Path 1987" d="M33.117,16.528A16.541,16.541,0,0,1,24.3,31.2a16.25,16.25,0,0,1-1.945.874A16.562,16.562,0,1,1,11.137.909l.195-.066a16.6,16.6,0,0,1,11.54.405c.094.038.187.077.28.118a16.357,16.357,0,0,1,2.228,1.179,16.533,16.533,0,0,1,7.737,13.983" transform="translate(0 0)" fill="#fff"/>
        <path id="Path_1988" data-name="Path 1988" d="M110.713,1.248A38.464,38.464,0,0,0,104.6,16.34c-.03.171-.05.307-.065.4v0l0,.028c-.014.1-.021.148-.021.148l-.063-.056c-.039-.036-.095-.087-.165-.155a.012.012,0,0,1,0,0h0l-.015-.014h0A19.217,19.217,0,0,1,98.979.909l.195-.066a16.6,16.6,0,0,1,11.54.405" transform="translate(-87.841 0)" fill="#29d6ae"/>
        <path id="Path_1989" data-name="Path 1989" d="M164.094,104.687a16.492,16.492,0,0,1-1.211,6.255,38.594,38.594,0,0,0-14.864-5.982c-.113-.02-.214-.036-.3-.048h0l-.054-.009-.256-.037h0l-.024,0,.009-.011c.032-.036.145-.162.338-.354a19.237,19.237,0,0,1,15.458-5.185,16.507,16.507,0,0,1,.9,5.373" transform="translate(-130.977 -88.159)" fill="#29d6ae"/>
        <path id="Path_1990" data-name="Path 1990" d="M107.713,164.169a16.618,16.618,0,0,1-11.656-.027,38.616,38.616,0,0,0,6.05-15.294c.021-.134.029-.2.029-.2s.1.085.268.252a19.192,19.192,0,0,1,5.309,15.273" transform="translate(-85.362 -132.095)" fill="#29d6ae"/>
        <path id="Path_1991" data-name="Path 1991" d="M16.709,101.323l-.023.025c-.018.019-.045.051-.083.092a19.146,19.146,0,0,1-15.575,5.445,16.613,16.613,0,0,1,.079-11.716,38.573,38.573,0,0,0,15.331,6.116l.253.035.018,0" transform="translate(0 -84.573)" fill="#29d6ae"/>
        <g id="Group_4614" data-name="Group 4614" transform="translate(8.062 1.206)" opacity="0.1">
          <g id="Group_4613" data-name="Group 4613">
            <g id="Group_4612" data-name="Group 4612" clip-path="url(#clip-path-3)">
              <path id="Path_1992" data-name="Path 1992" d="M97.467,26.154a16.541,16.541,0,0,1-8.822,14.672A16.252,16.252,0,0,1,86.7,41.7a16.526,16.526,0,0,1-14.289-1.3c.112.046.225.09.337.133a16.608,16.608,0,0,0,11.657.026,16.174,16.174,0,0,0,1.944-.874,16.557,16.557,0,0,0,1.085-28.655c-.1-.067-.211-.131-.317-.2.036.014.07.027.1.042.094.038.187.077.28.118a16.355,16.355,0,0,1,2.228,1.179,16.533,16.533,0,0,1,7.737,13.983" transform="translate(-72.412 -10.832)"/>
            </g>
          </g>
        </g>
      </g>
    </g>
  </g>
</svg>
